# xmcd CD database file
#
# Track frame offsets:
#	150
#	12255
#	25820
#	38117
#	54557
#	66930
#	78502
#	93810
#	104527
#	122397
#	132017
#	145137
#	156282
#	167457
#	183675
#	193835
#
# Disc length: 2764 seconds
#
# Revision: 1
# Processed by: cddbd v1.5.2PL0 Copyright (c) Steve Scherf et al.
# Submitted via: CDex 1.51
#
DISCID=d10aca10
DTITLE=Various  - Classic Country
DYEAR=1993
DGENRE=Country
TTITLE0=Dolly Parton - Jolene
TTITLE1=Kenny Rodgers - Ruby Don´t Take Your Love To Town
TTITLE2=Patsy Cline - Crazy
TTITLE3=Rita Coolidge - We´re All Alone
TTITLE4=Nilsson - Everybody´s Talkin´
TTITLE5=Don Gibson - Sea Of Heartbreaker
TTITLE6=Don Williams - I Recall A Gypsy Woman
TTITLE7=Jim Reeves - He´ll Have To Go
TTITLE8=Lee Greenwood - The Wind Beneath My Wings
TTITLE9=Waylon Jennings - Theme From The Dukes Of Hazzard(Good Ol´ Boys)
TTITLE10=Freddy Fender - Wasted Days And Wasted Nights
TTITLE11=Conway Twitty - It´s Only Make Belive
TTITLE12=Oak Ridge Boys - Trying To Love Two Woman
TTITLE13=Alabama - Feel So Rights
TTITLE14=George Hamilton - Abilene
TTITLE15=Loretta Lynn - Coal Miner´s Daughter
EXTD=YEAR: 1993
EXTT0=
EXTT1=
EXTT2=
EXTT3=
EXTT4=
EXTT5=
EXTT6=
EXTT7=
EXTT8=
EXTT9=
EXTT10=
EXTT11=
EXTT12=
EXTT13=
EXTT14=
EXTT15=
PLAYORDER=
